Coordinates
version=1
nRows=49
nColumns=12
inDegrees=yes

Units are S.I. units (second, meters, Newtons, ...)
Angles are in degrees

endheader
time	SC_y	SC_z	SC_x	AC_y	AC_z	AC_x	GH_y	GH_z	GH_yy	EL_x	PS_y
       0.0              -52.36          17.41         0.6313          54.51         -15.06         -8.527          160.2          71.16          144.8          49.47          50.63
   0.04375              -52.36          17.42         0.6418          54.51         -15.06         -8.528          160.1          71.16          144.8          49.48          50.64
    0.0875              -52.35          17.42         0.6529          54.51         -15.06         -8.528          160.1          71.16          144.8          49.49          50.65
    0.1313              -52.35          17.42         0.6647           54.5         -15.05         -8.529          160.0          71.16          144.8           49.5          50.67
     0.175              -52.35          17.42         0.6774           54.5         -15.05         -8.529          160.0          71.16          144.8          49.51          50.69
    0.2188              -52.34          17.42         0.6908           54.5         -15.05          -8.53          159.9          71.17          144.8          49.52          50.71
    0.2625              -52.34          17.43         0.7052          54.49         -15.04         -8.531          159.8          71.17          144.8          49.53          50.73
    0.3063              -52.34          17.43         0.7205          54.49         -15.04         -8.531          159.8          71.17          144.8          49.54          50.75
      0.35              -52.33          17.43          0.737          54.48         -15.04         -8.532          159.7          71.17          144.8          49.56          50.77
    0.3938              -52.33          17.43         0.7546          54.48         -15.03         -8.533          159.6          71.17          144.8          49.57          50.79
    0.4375              -52.32          17.44         0.7735          54.48         -15.03         -8.533          159.5          71.17          144.8          49.59          50.82
    0.4813              -52.32          17.44         0.7939          54.47         -15.02         -8.534          159.4          71.17          144.8           49.6          50.85
     0.525              -52.31          17.44         0.8159          54.46         -15.02         -8.535          159.3          71.17          144.8          49.62          50.88
    0.5688               -52.3          17.45         0.8396          54.46         -15.01         -8.536          159.2          71.18          144.8          49.64          50.91
    0.6125               -52.3          17.45         0.8653          54.45          -15.0         -8.537          159.1          71.18          144.8          49.66          50.95
    0.6563              -52.29          17.46         0.8932          54.44         -14.99         -8.538          159.0          71.18          144.8          49.68          50.99
       0.7              -52.28          17.46         0.9234          54.44         -14.99          -8.54          158.8          71.18          144.8           49.7          51.03
    0.7438              -52.27          17.47         0.9564          54.43         -14.98         -8.541          158.7          71.18          144.8          49.73          51.07
    0.7875              -52.26          17.47         0.9924          54.42         -14.97         -8.543          158.5          71.19          144.8          49.75          51.12
    0.8313              -52.25          17.48          1.032          54.41         -14.96         -8.544          158.4          71.19          144.7          49.79          51.18
     0.875              -52.24          17.49          1.075          54.39         -14.95         -8.546          158.2          71.19          144.7          49.82          51.24
    0.9188              -52.23          17.49          1.123          54.38         -14.93         -8.548          157.9           71.2          144.7          49.86           51.3
    0.9625              -52.21           17.5          1.175          54.37         -14.92          -8.55          157.7           71.2          144.7           49.9          51.37
     1.006              -52.19          17.51          1.234          54.35         -14.91         -8.553          157.4          71.21          144.7          49.94          51.45
      1.05              -52.18          17.52          1.299          54.33         -14.89         -8.556          157.2          71.21          144.7          49.99          51.54
     1.094              -52.16          17.53          1.371          54.32         -14.87         -8.559          156.8          71.22          144.7          50.05          51.64
     1.138              -52.13          17.54          1.452          54.29         -14.85         -8.562          156.5          71.22          144.6          50.11          51.75
     1.181              -52.11          17.56          1.543          54.27         -14.82         -8.566          156.1          71.23          144.6          50.18          51.88
     1.225              -52.08          17.58          1.646          54.24          -14.8          -8.57          155.6          71.24          144.6          50.26          52.02
     1.269              -52.05          17.59          1.763          54.21         -14.77         -8.575          155.1          71.24          144.6          50.35          52.18
     1.313              -52.01          17.62          1.897          54.18         -14.73         -8.581          154.5          71.25          144.5          50.46          52.36
     1.356              -51.97          17.64           2.05          54.13         -14.69         -8.587          153.8          71.27          144.5          50.57          52.57
       1.4              -51.92          17.67          2.227          54.09         -14.65         -8.595          153.0          71.28          144.4          50.71          52.82
     1.444              -51.86           17.7          2.432          54.03         -14.59         -8.604          152.1          71.29          144.4          50.87           53.1
     1.488               -51.8          17.74          2.673          53.97         -14.53         -8.614          151.0          71.31          144.3          51.06          53.43
     1.531              -51.72          17.78          2.956          53.89         -14.45         -8.626          149.7          71.33          144.2          51.28          53.82
     1.575              -51.63          17.84          3.293           53.8         -14.37          -8.64          148.2          71.36          144.2          51.54          54.28
     1.619              -51.52           17.9          3.697          53.69         -14.26         -8.657          146.4          71.39          144.1          51.85          54.84
     1.663              -51.38          17.98          4.185          53.56         -14.13         -8.678          144.2          71.42          143.9          52.23          55.51
     1.706              -51.22          18.07          4.782          53.41         -13.98         -8.703          141.5          71.47          143.8          52.69          56.33
      1.75              -51.01          18.19          5.519          53.21         -13.78         -8.734          138.2          71.52          143.6          53.26          57.34
     1.794              -50.76          18.33          6.437          52.96         -13.54         -8.773          134.0          71.59          143.4          53.98           58.6
     1.838              -50.44          18.52          7.594          52.65         -13.24         -8.822          128.8          71.68          143.1          54.87          60.19
     1.881              -50.04          18.75          9.065          52.26         -12.85         -8.884          122.2          71.79          142.7          56.01          62.21
     1.925              -49.52          19.05          10.95          51.76         -12.36         -8.964          113.7          71.93          142.2          57.47           64.8
     1.969              -48.85          19.43          13.36          51.12         -11.73         -9.066          102.8          72.11          141.6          59.34          68.12
     2.013               -48.0          19.92          16.45          50.29         -10.92         -9.197          88.94          72.34          140.8          61.74          72.36
     2.056              -46.93          20.54          20.33          49.26         -9.904         -9.361          71.46          72.62          139.8          64.74          77.69
       2.1              -45.63          21.28          25.06          47.99         -8.665         -9.561          50.17          72.97          138.6          68.41          84.19
